<?xml version="1.0" encoding="UTF-8" standalone="no"?>
<!-- Created with Inkscape (http://www.inkscape.org/) -->
<svg
   xmlns:dc="http://purl.org/dc/elements/1.1/"
   xmlns:cc="http://creativecommons.org/ns#"
   xmlns:rdf="http://www.w3.org/1999/02/22-rdf-syntax-ns#"
   xmlns:svg="http://www.w3.org/2000/svg"
   xmlns="http://www.w3.org/2000/svg"
   xmlns:sodipodi="http://sodipodi.sourceforge.net/DTD/sodipodi-0.dtd"
   xmlns:inkscape="http://www.inkscape.org/namespaces/inkscape"
   version="1.1"
   id="svg3713"
   xml:space="preserve"
   width="300"
   height="151.01271"
   viewBox="0 0 300 151.01271"
   sodipodi:docname="logo.svg"
   inkscape:version="0.92.3 (2405546, 2018-03-11)"><metadata
     id="metadata3719"><rdf:RDF><cc:Work
         rdf:about=""><dc:format>image/svg+xml</dc:format><dc:type
           rdf:resource="http://purl.org/dc/dcmitype/StillImage" /><dc:title></dc:title></cc:Work></rdf:RDF></metadata><defs
     id="defs3717"><clipPath
       clipPathUnits="userSpaceOnUse"
       id="clipPath3725"><path
         d="M 0,1.0000112 H 375 V 376 H 0 Z"
         id="path3723"
         inkscape:connector-curvature="0" /></clipPath><clipPath
       clipPathUnits="userSpaceOnUse"
       id="clipPath3761"><path
         d="m 16.5,76.5 h 95.25 V 240.75 H 16.5 Z"
         id="path3759"
         inkscape:connector-curvature="0"
         style="clip-rule:evenodd" /></clipPath><clipPath
       clipPathUnits="userSpaceOnUse"
       id="clipPath3789"><path
         d="M 0,0 H 375 V 375 H 0 Z"
         id="path3787"
         inkscape:connector-curvature="0"
         style="clip-rule:evenodd" /></clipPath></defs><sodipodi:namedview
     pagecolor="#ffffff"
     bordercolor="#666666"
     borderopacity="1"
     objecttolerance="10"
     gridtolerance="10"
     guidetolerance="10"
     inkscape:pageopacity="0"
     inkscape:pageshadow="2"
     inkscape:window-width="1920"
     inkscape:window-height="1017"
     id="namedview3715"
     showgrid="false"
     inkscape:zoom="1.696"
     inkscape:cx="250"
     inkscape:cy="103.36222"
     inkscape:window-x="-8"
     inkscape:window-y="-8"
     inkscape:window-maximized="1"
     inkscape:current-layer="g4006"
     fit-margin-top="0"
     fit-margin-left="0"
     fit-margin-right="0"
     fit-margin-bottom="0" /><g
     id="g3721"
     inkscape:groupmode="layer"
     inkscape:label="logo"
     transform="matrix(1.3333333,0,0,-1.3333333,-2.61864e-7,152.34604)"
     clip-path="url(#clipPath3725)"><g
       id="g3727"
       transform="matrix(0.60000002,0,0,-0.64543543,0,243.52236)"><g
         id="g3783"><g
           id="g4006"
           transform="translate(-16.502924,135)"><g
             id="g4235"><g
               transform="matrix(1.0683575,0,0,1.0683575,-1.1280983,-16.457062)"
               id="g3755"><g
                 id="g3757"
                 clip-path="url(#clipPath3761)"><g
                   id="g3763"
                   transform="matrix(0.32775,0,0,0.3285,16.502924,76.5)"><path
                     d="m 201.39999,427.5 c -30,8.20001 -56,15.29999 -84,23 23,27.79999 44.70002,19.39999 84,-23 z"
                     style="fill:#a6ce39;fill-opacity:1;fill-rule:nonzero;stroke:none"
                     id="path3765"
                     inkscape:connector-curvature="0" /><path
                     d="M 57.200001,404.70001 C 79.599998,438.20001 120.7,436.30002 171,402.30002 c -38.3,0.79999 -74.900002,1.59997 -113.799999,2.39999 z"
                     style="fill:#a6ce39;fill-opacity:1;fill-rule:nonzero;stroke:none"
                     id="path3767"
                     inkscape:connector-curvature="0" /><path
                     d="m 166.2,375.29999 c -0.2,-1.5 -8.80001,-4.79999 -14.4,-6.70001 C 104.4,358.39996 57,348.09998 6.9000092,337.29999 16.300009,361 29.900009,375 50.800011,375.89999 c 33.299987,1.5 81.899989,-0.19998 115.399989,-0.6 z"
                     style="fill:#a6ce39;fill-opacity:1;fill-rule:nonzero;stroke:none"
                     id="path3769"
                     inkscape:connector-curvature="0" /><path
                     d="m 170.5,326.60001 c 1.5,-1.70002 -10.7,-16.9 -12.39999,-20.29999 -43.2,-56.4 -86.400005,-112.8 -131.899998,-172.2 -6.899999,27.89999 -9,51.7 9.200001,69.3 C 73.699997,240.5 131,290.79999 170.5,326.60001 Z"
                     style="fill:#00accd;fill-opacity:1;fill-rule:nonzero;stroke:none"
                     id="path3771"
                     inkscape:connector-curvature="0" /><path
                     d="m 28.799999,300.20001 c 35.799999,13.9 97.300011,33 133.900001,45 -0.4,-1.79999 -16.9,-10.6 -22.2,-14 C 94.400002,302.10001 48.299999,273 0,242.5 c 1.7,30.20001 9.6999998,50.20001 28.799999,57.70001 z"
                     style="fill:#00accd;fill-opacity:1;fill-rule:nonzero;stroke:none"
                     id="path3773"
                     inkscape:connector-curvature="0" /><path
                     d="m 192.7,297.79999 c -51.7,-53.30001 -75.6,-97.9 -75.6,-97.9 -16.3,-27.3 -29.799997,-56.6 -41.000002,-86.4 C 62.5,77.800003 67.599998,34.099998 86.5,0 106.7,91.699997 192.7,297.79999 192.7,297.79999 Z"
                     style="fill:#00accd;fill-opacity:1;fill-rule:nonzero;stroke:none"
                     id="path3775"
                     inkscape:connector-curvature="0" /><path
                     d="m 258.70001,460.20001 c -10.8,11.70001 -20.3,22 -31.6,34.29999 25.79998,3.60001 31.79998,-3.29999 31.6,-34.29999 z"
                     style="fill:#faa619;fill-opacity:1;fill-rule:nonzero;stroke:none"
                     id="path3777"
                     inkscape:connector-curvature="0" /><path
                     d="m 169.89999,480 c 27.2,14.10001 34.80001,10.29999 57.60001,-30.20001 -18.7,9.80002 -37.5,19.6 -57.60001,30.20001 z"
                     style="fill:#faa619;fill-opacity:1;fill-rule:nonzero;stroke:none"
                     id="path3779"
                     inkscape:connector-curvature="0" /><path
                     d="M 268.39999,500 C 292,496.70001 291.5,482.20001 290,467.5 c -6.29999,9.5 -12.60001,19 -21.60001,32.5 z"
                     style="fill:#faa619;fill-opacity:1;fill-rule:nonzero;stroke:none"
                     id="path3781"
                     inkscape:connector-curvature="0" /></g></g></g><g
               transform="matrix(1.0683575,0,0,1.0683575,-1.1280983,-16.457064)"
               id="g3785"
               clip-path="url(#clipPath3789)"><g
                 id="g3791"
                 transform="matrix(0.75,0,0,0.75,74.25,159)"><g
                   id="text3795"
                   style="font-variant:normal;font-weight:bold;font-size:68.15000153px;font-family:LiberationSans;-inkscape-font-specification:LiberationSans-Bold;writing-mode:lr-tb;fill:#222222;fill-opacity:1;fill-rule:nonzero;stroke:none"
                   transform="translate(0,75)"
                   aria-label="М"><path
                     id="path4120"
                     d="M 4.8250734,0 V -48.783155 H 19.566504 l 8.851514,33.276368 8.751685,-33.276368 H 51.94441 V 0 H 42.793409 V -38.400929 L 33.109986,0 H 23.626221 L 13.976075,-38.400929 V 0 Z"
                     inkscape:connector-curvature="0" /></g><g
                   id="text3799"
                   style="font-variant:normal;font-weight:bold;font-size:68.15000153px;font-family:LiberationSans;-inkscape-font-specification:LiberationSans-Bold;writing-mode:lr-tb;fill:#222222;fill-opacity:1;fill-rule:nonzero;stroke:none"
                   transform="translate(56.75,75)"
                   aria-label="Е"><path
                     id="path4123"
                     d="M 4.9581788,0 V -48.783155 H 41.129591 v 8.252539 H 14.807984 v 10.814819 h 24.491407 v 8.219263 H 14.807984 V -8.2192629 H 42.061329 V 0 Z"
                     inkscape:connector-curvature="0" /></g><g
                   id="text3803"
                   style="font-variant:normal;font-weight:bold;font-size:68.15000153px;font-family:LiberationSans;-inkscape-font-specification:LiberationSans-Bold;writing-mode:lr-tb;fill:#222222;fill-opacity:1;fill-rule:nonzero;stroke:none"
                   transform="translate(102.1875,75)"
                   aria-label="Л"><path
                     id="path4126"
                     d="M 8.4521975,-48.783155 H 42.627027 V 0 H 32.777222 V -40.530616 H 18.102344 v 20.831006 q 0,8.951343 -0.598974,12.5119145 -0.598975,3.527295 -2.928321,5.5238771 -2.296069,1.96330571 -7.2209717,1.96330571 -1.7303711,0 -6.2892335,-0.33276368 V -7.6535646 l 2.1962403,0.033276 q 3.0947022,0 4.1595459,-0.8319092 1.0648438,-0.8319092 1.0648438,-4.0929932 l -0.033276,-8.385644 z"
                     inkscape:connector-curvature="0" /></g><g
                   id="text3807"
                   style="font-variant:normal;font-weight:bold;font-size:68.15000153px;font-family:LiberationSans;-inkscape-font-specification:LiberationSans-Bold;writing-mode:lr-tb;fill:#222222;fill-opacity:1;fill-rule:nonzero;stroke:none"
                   transform="translate(149.98437,75)"
                   aria-label="О"><path
                     id="path4129"
                     d="m 2.9615967,-24.09209 q 0,-7.453907 2.2295167,-12.511915 1.6638184,-3.726953 4.525586,-6.68855 2.8950436,-2.961596 6.3225096,-4.39248 4.558863,-1.93003 10.515333,-1.93003 10.781543,0 17.237158,6.68855 6.488892,6.68855 6.488892,18.60149 0,11.813111 -6.422339,18.5016606 -6.422339,6.6552736 -17.170606,6.6552736 -10.881372,0 -17.3037112,-6.6219972 -6.4223391,-6.655274 -6.4223391,-18.302002 z m 10.1492923,-0.332764 q 0,8.285816 3.826782,12.578467 3.826783,4.2593751 9.7167,4.2593751 5.889917,0 9.650146,-4.2260991 3.793506,-4.259375 3.793506,-12.744849 0,-8.385644 -3.693676,-12.511914 -3.660401,-4.12627 -9.749976,-4.12627 -6.089576,0 -9.816529,4.192823 -3.726953,4.159546 -3.726953,12.578467 z"
                     inkscape:connector-curvature="0" /></g><g
                   id="text3811"
                   style="font-variant:normal;font-weight:bold;font-size:68.15000153px;font-family:LiberationSans;-inkscape-font-specification:LiberationSans-Bold;writing-mode:lr-tb;fill:#222222;fill-opacity:1;fill-rule:nonzero;stroke:none"
                   transform="translate(202.98438,75)"
                   aria-label="Д"><path
                     id="path4132"
                     d="M 8.8847902,-48.783155 H 42.593751 v 40.5971685 h 4.292651 V 10.648438 H 38.700416 V 0 H 7.9863283 V 10.648438 H -0.19965821 V -8.1859865 H 3.9266114 q 3.0281495,-6.2559575 3.9931642,-14.5084965 0.9650146,-8.285816 0.9650146,-20.930835 z m 9.3839358,8.185986 q 0,22.228614 -4.026441,32.4111825 H 32.777222 V -40.597169 Z"
                     inkscape:connector-curvature="0" /></g><g
                   id="text3815"
                   style="font-variant:normal;font-weight:bold;font-size:68.15000153px;font-family:LiberationSans;-inkscape-font-specification:LiberationSans-Bold;writing-mode:lr-tb;fill:#222222;fill-opacity:1;fill-rule:nonzero;stroke:none"
                   transform="translate(251.51563,75)"
                   aria-label="И"><path
                     id="path4135"
                     d="m 5.0912843,-48.783155 h 9.2175537 v 32.477735 l 19.766163,-32.477735 h 9.816528 V 0 H 34.673975 V -31.845484 L 14.941089,0 H 5.0912843 Z"
                     inkscape:connector-curvature="0" /></g><g
                   id="text3819"
                   style="font-variant:normal;font-weight:bold;font-size:68.15000153px;font-family:LiberationSans;-inkscape-font-specification:LiberationSans-Bold;writing-mode:lr-tb;fill:#222222;fill-opacity:1;fill-rule:nonzero;stroke:none"
                   transform="translate(300.48438,75)"
                   aria-label="К"><path
                     id="path4138"
                     d="m 5.1245607,-48.783155 h 9.8498053 v 20.764453 q 3.29436,-0.332763 4.459033,-1.697095 1.164673,-1.364331 3.593848,-7.587011 3.061425,-7.919776 6.156128,-9.849805 3.061426,-1.93003 9.883081,-1.93003 0.332764,0 1.430884,-0.03328 v 7.287525 l -1.397608,-0.03328 q -3.028149,0 -4.425757,0.765357 -1.397607,0.73208 -2.262793,2.262793 -0.865185,1.530713 -2.56228,6.289233 -0.898462,2.529004 -1.963306,4.226099 -1.031567,1.697095 -3.693677,3.194531 3.294361,0.931739 5.424048,3.76023 2.162964,2.828491 4.725245,7.986328 L 40.996485,0 H 29.416309 l -5.823364,-12.611743 q -0.133106,-0.266211 -0.565698,-1.031568 -0.166382,-0.266211 -1.231226,-2.296069 -1.896753,-3.593848 -3.127979,-4.49231 -1.197949,-0.898462 -3.693676,-0.931738 V 0 H 5.1245607 Z"
                     inkscape:connector-curvature="0" /></g><g
                   id="text3823"
                   style="font-variant:normal;font-weight:bold;font-size:68.15000153px;font-family:LiberationSans;-inkscape-font-specification:LiberationSans-Bold;writing-mode:lr-tb;fill:#222222;fill-opacity:1;fill-rule:nonzero;stroke:none"
                   transform="translate(342.0625,75)"
                   aria-label="А"><path
                     id="path4141"
                     d="M 48.949537,0 H 38.234547 L 33.975172,-11.081031 H 14.47522 L 10.44878,0 H 0 l 19.000806,-48.783155 h 10.415503 z m -18.13562,-19.300293 -6.721827,-18.102345 -6.58872,18.102345 z"
                     inkscape:connector-curvature="0" /></g></g><g
                 id="g3825"
                 transform="matrix(0.75,0,0,0.75,156.75,229.5)"><g
                   id="text3829"
                   style="font-variant:normal;font-weight:normal;font-size:9.72999954px;font-family:LiberationSans;-inkscape-font-specification:LiberationSans;writing-mode:lr-tb;fill:#222222;fill-opacity:1;fill-rule:nonzero;stroke:none"
                   transform="translate(0,9)"
                   aria-label="Р"><path
                     id="path4144"
                     d="M 0.75065426,0 V -6.9649313 H 3.3779442 q 0.6936425,0 1.0594677,0.066514 0.5131054,0.085517 0.8599267,0.3278173 0.3468213,0.2375488 0.5558642,0.6698877 0.213794,0.4323388 0.213794,0.9501953 0,0.8884325 -0.5653662,1.5060595 -0.5653662,0.6128759 -2.0429198,0.6128759 H 1.6723437 V 0 Z M 1.6723437,-3.6535008 h 1.80062 q 0.8931836,0 1.2685107,-0.3325683 0.3753271,-0.3325684 0.3753271,-0.9359424 0,-0.4370898 -0.2232959,-0.7459033 Q 4.6749607,-5.9814792 4.3138865,-6.0812497 4.0810887,-6.1430124 3.4539598,-6.1430124 H 1.6723437 Z"
                     inkscape:connector-curvature="0" /></g><g
                   id="text3833"
                   style="font-variant:normal;font-weight:normal;font-size:9.72999954px;font-family:LiberationSans;-inkscape-font-specification:LiberationSans;writing-mode:lr-tb;fill:#222222;fill-opacity:1;fill-rule:nonzero;stroke:none"
                   transform="translate(10.171875,9)"
                   aria-label="У"><path
                     id="path4147"
                     d="m 0.04750976,-6.9649313 h 0.93119137 l 2.27096667,4.2663767 1.9859081,-4.2663767 h 0.9169385 l -2.613037,5.416113 q -0.4893506,1.01670895 -0.802915,1.33027339 -0.3135645,0.31356444 -0.8979346,0.31356444 -0.3563232,0 -0.8741796,-0.16628418 v -0.78866207 q 0.3705762,0.21379394 0.7839111,0.21379394 0.3373193,0 0.5796191,-0.21379394 0.2470508,-0.21854488 0.5416113,-0.98820308 z"
                     inkscape:connector-curvature="0" /></g><g
                   id="text3837"
                   style="font-variant:normal;font-weight:normal;font-size:9.72999954px;font-family:JuliusSansOne;-inkscape-font-specification:JuliusSansOne-Regular;writing-mode:lr-tb;fill:#222222;fill-opacity:1;fill-rule:nonzero;stroke:none"
                   transform="translate(20.03125,9)"
                   aria-label="-"><path
                     id="path4150"
                     d="M 3.6915086,-2.6652977 H 0.72689938 V -3.5252244 H 3.6915086 Z"
                     inkscape:connector-curvature="0" /></g><g
                   id="text3841"
                   style="font-variant:normal;font-weight:normal;font-size:9.72999954px;font-family:LiberationSans;-inkscape-font-specification:LiberationSans;writing-mode:lr-tb;fill:#222222;fill-opacity:1;fill-rule:nonzero;stroke:none"
                   transform="translate(28.53125,9)"
                   aria-label="Г"><path
                     id="path4153"
                     d="M 0.76490719,-6.9649313 H 5.2688328 v 0.8219189 H 1.6865966 V 0 H 0.76490719 Z"
                     inkscape:connector-curvature="0" /></g><g
                   id="text3845"
                   style="font-variant:normal;font-weight:normal;font-size:9.72999954px;font-family:LiberationSans;-inkscape-font-specification:LiberationSans;writing-mode:lr-tb;fill:#222222;fill-opacity:1;fill-rule:nonzero;stroke:none"
                   transform="translate(37.484375,9)"
                   aria-label="А"><path
                     id="path4156"
                     d="M -0.01425293,0 2.6605467,-6.9649313 H 3.6535008 L 6.5040866,0 H 5.4541208 L 4.6417039,-2.1094335 H 1.7293554 L 0.9644482,0 Z M 1.9954101,-2.8600878 H 4.3566453 L 3.6297459,-4.7889841 Q 3.2971776,-5.6679148 3.1356444,-6.233281 3.002617,-5.5633933 2.7603173,-4.9030076 Z"
                     inkscape:connector-curvature="0" /></g><g
                   id="text3849"
                   style="font-variant:normal;font-weight:normal;font-size:9.72999954px;font-family:LiberationSans;-inkscape-font-specification:LiberationSans;writing-mode:lr-tb;fill:#222222;fill-opacity:1;fill-rule:nonzero;stroke:none"
                   transform="translate(47.65625,9)"
                   aria-label="Л"><path
                     id="path4159"
                     d="M 1.2590087,-6.9649313 H 5.620405 V 0 H 4.6987156 V -6.1430124 H 2.1806981 v 3.5869871 q 0,1.0927246 -0.1045214,1.60107906 -0.09977,0.50835446 -0.4275879,0.79341304 -0.3278174,0.28030761 -0.83142087,0.28030761 -0.30406249,0 -0.73165036,-0.11402343 l 0.15678222,-0.81716793 q 0.22804687,0.0950195 0.38958006,0.0950195 0.31356444,0 0.47034665,-0.23279784 0.1567822,-0.23754881 0.1567822,-1.11172841 z"
                     inkscape:connector-curvature="0" /></g><g
                   id="text3853"
                   style="font-variant:normal;font-weight:normal;font-size:9.72999954px;font-family:LiberationSans;-inkscape-font-specification:LiberationSans;writing-mode:lr-tb;fill:#222222;fill-opacity:1;fill-rule:nonzero;stroke:none"
                   transform="translate(57.71875,9)"
                   aria-label="А"><path
                     id="path4162"
                     d="M -0.01425293,0 2.6605467,-6.9649313 H 3.6535008 L 6.5040866,0 H 5.4541208 L 4.6417039,-2.1094335 H 1.7293554 L 0.9644482,0 Z M 1.9954101,-2.8600878 H 4.3566453 L 3.6297459,-4.7889841 Q 3.2971776,-5.6679148 3.1356444,-6.233281 3.002617,-5.5633933 2.7603173,-4.9030076 Z"
                     inkscape:connector-curvature="0" /></g><g
                   id="text3857"
                   style="font-variant:normal;font-weight:normal;font-size:9.72999954px;font-family:LiberationSans;-inkscape-font-specification:LiberationSans;writing-mode:lr-tb;fill:#222222;fill-opacity:1;fill-rule:nonzero;stroke:none"
                   transform="translate(67.890625,9)"
                   aria-label="К"><path
                     id="path4165"
                     d="M 0.76490719,-6.9649313 H 1.6865966 v 3.0501268 q 0.6318799,0 0.8884326,-0.2422998 0.2565527,-0.2470508 0.6556347,-1.1782421 0.2898096,-0.6841406 0.4750976,-0.9644482 0.1900391,-0.2850586 0.5368604,-0.4750977 0.3468212,-0.19479 0.7649072,-0.19479 0.5321093,0 0.5606152,0.0095 v 0.798164 q -0.04751,0 -0.1852881,-0.00475 -0.1520313,-0.00475 -0.1852881,-0.00475 -0.4418408,0 -0.6556347,0.213794 -0.2185449,0.2137939 -0.4988525,0.9121874 -0.3515723,0.8836816 -0.5938721,1.1164795 -0.2422998,0.2280468 -0.5796191,0.3658251 0.6746386,0.1852881 1.3302734,1.2447558 L 5.6346579,0 H 4.4896726 L 3.3256834,-1.8908886 Q 2.8458348,-2.6747997 2.5227684,-2.9646092 2.199702,-3.2591698 1.6865966,-3.2591698 V 0 H 0.76490719 Z"
                     inkscape:connector-curvature="0" /></g><g
                   id="text3861"
                   style="font-variant:normal;font-weight:normal;font-size:9.72999954px;font-family:LiberationSans;-inkscape-font-specification:LiberationSans;writing-mode:lr-tb;fill:#222222;fill-opacity:1;fill-rule:nonzero;stroke:none"
                   transform="translate(77.25,9)"
                   aria-label="Р"><path
                     id="path4168"
                     d="M 0.75065426,0 V -6.9649313 H 3.3779442 q 0.6936425,0 1.0594677,0.066514 0.5131054,0.085517 0.8599267,0.3278173 0.3468213,0.2375488 0.5558642,0.6698877 0.213794,0.4323388 0.213794,0.9501953 0,0.8884325 -0.5653662,1.5060595 -0.5653662,0.6128759 -2.0429198,0.6128759 H 1.6723437 V 0 Z M 1.6723437,-3.6535008 h 1.80062 q 0.8931836,0 1.2685107,-0.3325683 0.3753271,-0.3325684 0.3753271,-0.9359424 0,-0.4370898 -0.2232959,-0.7459033 Q 4.6749607,-5.9814792 4.3138865,-6.0812497 4.0810887,-6.1430124 3.4539598,-6.1430124 H 1.6723437 Z"
                     inkscape:connector-curvature="0" /></g><g
                   id="text3865"
                   style="font-variant:normal;font-weight:normal;font-size:9.72999954px;font-family:LiberationSans;-inkscape-font-specification:LiberationSans;writing-mode:lr-tb;fill:#222222;fill-opacity:1;fill-rule:nonzero;stroke:none"
                   transform="translate(87.421875,9)"
                   aria-label="О"><path
                     id="path4171"
                     d="m 0.47034666,-3.3921971 q 0,-1.7341064 0.93119134,-2.7128075 0.9311914,-0.9834521 2.403994,-0.9834521 0.9644482,0 1.7388574,0.4608447 0.7744091,0.4608447 1.1782421,1.2875146 0.408584,0.8219189 0.408584,1.8671337 0,1.0594677 -0.4275879,1.8956396 -0.4275879,0.83617179 -1.211499,1.26851064 -0.783911,0.42758787 -1.6913475,0.42758787 -0.9834521,0 -1.7578613,-0.47509764 Q 1.2685107,-0.83142086 0.86942867,-1.6533398 0.47034666,-2.4752587 0.47034666,-3.3921971 Z m 0.95019524,0.014253 q 0,1.2590088 0.6746387,1.9859081 0.6793896,0.72214844 1.7008495,0.72214844 1.0404638,0 1.7103515,-0.73165034 0.6746386,-0.7316504 0.6746386,-2.0761767 0,-0.8504247 -0.2898095,-1.4823046 Q 5.6061521,-5.5966501 5.0502878,-5.9434714 4.4991746,-6.2950436 3.810283,-6.2950436 q -0.9787011,0 -1.6865966,0.6746386 -0.7031445,0.6698877 -0.7031445,2.2424609 z"
                     inkscape:connector-curvature="0" /></g><g
                   id="text3869"
                   style="font-variant:normal;font-weight:normal;font-size:9.72999954px;font-family:LiberationSans;-inkscape-font-specification:LiberationSans;writing-mode:lr-tb;fill:#222222;fill-opacity:1;fill-rule:nonzero;stroke:none"
                   transform="translate(98.671875,9)"
                   aria-label="Н"><path
                     id="path4174"
                     d="M 0.77916012,0 V -6.9649313 H 1.7008495 v 2.8600877 h 3.620244 V -6.9649313 H 6.2427829 V 0 H 5.3210935 V -3.2829247 H 1.7008495 V 0 Z"
                     inkscape:connector-curvature="0" /></g><g
                   id="text3873"
                   style="font-variant:normal;font-weight:normal;font-size:9.72999954px;font-family:LiberationSans;-inkscape-font-specification:LiberationSans;writing-mode:lr-tb;fill:#222222;fill-opacity:1;fill-rule:nonzero;stroke:none"
                   transform="translate(109.375,9)"
                   aria-label="Д"><path
                     id="path4177"
                     d="M 1.3825341,-6.9649313 H 5.620405 v 6.14301239 H 6.2475339 V 1.6248339 H 5.425615 V 0 H 0.82191891 V 1.6248339 H 0 V -0.82191891 H 0.5416113 Q 1.3825341,-2.0904296 1.3825341,-5.9482224 Z m 3.3161815,0.8219189 H 2.2709667 v 0.3563232 q 0,0.8884326 -0.1615332,2.4324999 -0.1567822,1.5393163 -0.6223779,2.53227039 h 3.21166 z"
                     inkscape:connector-curvature="0" /></g></g></g></g></g></g></g></g></svg>